<?xml version="1.0" standalone="no"?>
<!DOCTYPE svg PUBLIC "-//W3C//DTD SVG 20010904//EN"
 "http://www.w3.org/TR/2001/REC-SVG-20010904/DTD/svg10.dtd">
<svg version="1.0" xmlns="http://www.w3.org/2000/svg"
 width="138.000000pt" height="138.000000pt" viewBox="0 0 138.000000 138.000000"
 preserveAspectRatio="xMidYMid meet">
<metadata>
RIK Logo
</metadata>
<g transform="translate(0.000000,138.000000) scale(0.100000,-0.100000)"
fill="#000000" stroke="none">
<path d="M720 921 l0 -81 45 0 45 0 0 -50 0 -50 80 0 80 0 0 50 0 50 -80 0
-79 0 -3 78 -3 77 -42 3 -43 3 0 -80z"/>
<path d="M550 790 l0 -50 80 0 80 0 0 -75 0 -75 45 0 45 0 0 75 0 75 -45 0
-45 0 0 50 0 50 -80 0 -80 0 0 -50z"/>
</g>
</svg>
